<?xml version="1.0" encoding="UTF-8"?>
<svg width="700pt" height="700pt" version="1.1" viewBox="0 0 700 700" xmlns="http://www.w3.org/2000/svg" xmlns:xlink="http://www.w3.org/1999/xlink">
 <defs>
  <symbol id="u" overflow="visible">
   <path d="m18.766-1.125c-0.96875 0.5-1.9805 0.875-3.0312 1.125-1.043 0.25781-2.1367 0.39062-3.2812 0.39062-3.3984 0-6.0898-0.94531-8.0781-2.8438-1.9922-1.9062-2.9844-4.4844-2.9844-7.7344 0-3.2578 0.99219-5.8359 2.9844-7.7344 1.9883-1.9062 4.6797-2.8594 8.0781-2.8594 1.1445 0 2.2383 0.13281 3.2812 0.39062 1.0508 0.25 2.0625 0.625 3.0312 1.125v4.2188c-0.98047-0.65625-1.9453-1.1406-2.8906-1.4531-0.94922-0.3125-1.9492-0.46875-3-0.46875-1.875 0-3.3516 0.60547-4.4219 1.8125-1.0742 1.1992-1.6094 2.8555-1.6094 4.9688 0 2.1055 0.53516 3.7617 1.6094 4.9688 1.0703 1.1992 2.5469 1.7969 4.4219 1.7969 1.0508 0 2.0508-0.14844 3-0.45312 0.94531-0.3125 1.9102-0.80078 2.8906-1.4688z"/>
  </symbol>
  <symbol id="b" overflow="visible">
   <path d="m13.734-11.141c-0.4375-0.19531-0.87109-0.34375-1.2969-0.4375-0.41797-0.10156-0.83984-0.15625-1.2656-0.15625-1.2617 0-2.2305 0.40625-2.9062 1.2188-0.67969 0.80469-1.0156 1.9531-1.0156 3.4531v7.0625h-4.8906v-15.312h4.8906v2.5156c0.625-1 1.3438-1.7266 2.1562-2.1875 0.82031-0.46875 1.8008-0.70312 2.9375-0.70312 0.16406 0 0.34375 0.011719 0.53125 0.03125 0.19531 0.011719 0.47656 0.039062 0.84375 0.078125z"/>
  </symbol>
  <symbol id="a" overflow="visible">
   <path d="m17.641-7.7031v1.4062h-11.453c0.125 1.1484 0.53906 2.0078 1.25 2.5781 0.70703 0.57422 1.7031 0.85938 2.9844 0.85938 1.0312 0 2.082-0.14844 3.1562-0.45312 1.082-0.3125 2.1914-0.77344 3.3281-1.3906v3.7656c-1.1562 0.4375-2.3125 0.76562-3.4688 0.98438-1.1562 0.22656-2.3125 0.34375-3.4688 0.34375-2.7734 0-4.9297-0.70312-6.4688-2.1094-1.5312-1.4062-2.2969-3.3789-2.2969-5.9219 0-2.5 0.75391-4.4609 2.2656-5.8906 1.5078-1.4375 3.582-2.1562 6.2188-2.1562 2.4062 0 4.332 0.73047 5.7812 2.1875 1.4453 1.4492 2.1719 3.3828 2.1719 5.7969zm-5.0312-1.625c0-0.92578-0.27344-1.6719-0.8125-2.2344-0.54297-0.57031-1.25-0.85938-2.125-0.85938-0.94922 0-1.7188 0.26562-2.3125 0.79688s-0.96484 1.2969-1.1094 2.2969z"/>
  </symbol>
  <symbol id="g" overflow="visible">
   <path d="m9.2188-6.8906c-1.0234 0-1.793 0.17188-2.3125 0.51562-0.51172 0.34375-0.76562 0.85547-0.76562 1.5312 0 0.625 0.20703 1.1172 0.625 1.4688 0.41406 0.34375 0.98828 0.51562 1.7188 0.51562 0.92578 0 1.7031-0.32812 2.3281-0.98438 0.63281-0.66406 0.95312-1.4922 0.95312-2.4844v-0.5625zm7.4688-1.8438v8.7344h-4.9219v-2.2656c-0.65625 0.92969-1.3984 1.6055-2.2188 2.0312-0.82422 0.41406-1.8242 0.625-3 0.625-1.5859 0-2.8711-0.45703-3.8594-1.375-0.99219-0.92578-1.4844-2.1289-1.4844-3.6094 0-1.7891 0.61328-3.1016 1.8438-3.9375 1.2383-0.84375 3.1797-1.2656 5.8281-1.2656h2.8906v-0.39062c0-0.76953-0.30859-1.332-0.92188-1.6875-0.61719-0.36328-1.5703-0.54688-2.8594-0.54688-1.0547 0-2.0312 0.10547-2.9375 0.3125-0.89844 0.21094-1.7305 0.52344-2.5 0.9375v-3.7344c1.0391-0.25 2.0859-0.44141 3.1406-0.57812 1.0625-0.13281 2.125-0.20312 3.1875-0.20312 2.7578 0 4.75 0.54688 5.9688 1.6406 1.2266 1.0859 1.8438 2.8555 1.8438 5.3125z"/>
  </symbol>
  <symbol id="e" overflow="visible">
   <path d="m7.7031-19.656v4.3438h5.0469v3.5h-5.0469v6.5c0 0.71094 0.14062 1.1875 0.42188 1.4375s0.83594 0.375 1.6719 0.375h2.5156v3.5h-4.1875c-1.9375 0-3.3125-0.39844-4.125-1.2031-0.80469-0.8125-1.2031-2.1797-1.2031-4.1094v-6.5h-2.4219v-3.5h2.4219v-4.3438z"/>
  </symbol>
  <symbol id="l" overflow="visible">
   <path d="m12.766-13.078v-8.2031h4.9219v21.281h-4.9219v-2.2188c-0.66797 0.90625-1.4062 1.5703-2.2188 1.9844s-1.7578 0.625-2.8281 0.625c-1.8867 0-3.4336-0.75-4.6406-2.25-1.2109-1.5-1.8125-3.4258-1.8125-5.7812 0-2.3633 0.60156-4.2969 1.8125-5.7969 1.207-1.5 2.7539-2.25 4.6406-2.25 1.0625 0 2 0.21484 2.8125 0.64062 0.82031 0.42969 1.5664 1.0859 2.2344 1.9688zm-3.2188 9.9219c1.0391 0 1.8359-0.37891 2.3906-1.1406 0.55078-0.76953 0.82812-1.8828 0.82812-3.3438 0-1.457-0.27734-2.5664-0.82812-3.3281-0.55469-0.76953-1.3516-1.1562-2.3906-1.1562-1.043 0-1.8398 0.38672-2.3906 1.1562-0.55469 0.76172-0.82812 1.8711-0.82812 3.3281 0 1.4609 0.27344 2.5742 0.82812 3.3438 0.55078 0.76172 1.3477 1.1406 2.3906 1.1406z"/>
  </symbol>
  <symbol id="k" overflow="visible">
   <path d="m10.5-3.1562c1.0508 0 1.8516-0.37891 2.4062-1.1406 0.55078-0.76953 0.82812-1.8828 0.82812-3.3438 0-1.457-0.27734-2.5664-0.82812-3.3281-0.55469-0.76953-1.3555-1.1562-2.4062-1.1562-1.0547 0-1.8594 0.38672-2.4219 1.1562-0.55469 0.77344-0.82812 1.8828-0.82812 3.3281 0 1.4492 0.27344 2.5586 0.82812 3.3281 0.5625 0.77344 1.3672 1.1562 2.4219 1.1562zm-3.25-9.9219c0.67578-0.88281 1.4219-1.5391 2.2344-1.9688 0.82031-0.42578 1.7656-0.64062 2.8281-0.64062 1.8945 0 3.4453 0.75 4.6562 2.25 1.207 1.5 1.8125 3.4336 1.8125 5.7969 0 2.3555-0.60547 4.2812-1.8125 5.7812-1.2109 1.5-2.7617 2.25-4.6562 2.25-1.0625 0-2.0078-0.21094-2.8281-0.625-0.8125-0.42578-1.5586-1.0859-2.2344-1.9844v2.2188h-4.8906v-21.281h4.8906z"/>
  </symbol>
  <symbol id="j" overflow="visible">
   <path d="m0.34375-15.312h4.8906l4.125 10.391 3.5-10.391h4.8906l-6.4375 16.766c-0.64844 1.6953-1.4023 2.8828-2.2656 3.5625-0.86719 0.6875-2 1.0312-3.4062 1.0312h-2.8438v-3.2188h1.5312c0.83203 0 1.4375-0.13672 1.8125-0.40625 0.38281-0.26172 0.67969-0.73047 0.89062-1.4062l0.14062-0.42188z"/>
  </symbol>
  <symbol id="f" overflow="visible">
   <path d="m2.3594-21.281h4.8906v21.281h-4.8906z"/>
  </symbol>
  <symbol id="d" overflow="visible">
   <path d="m9.6406-12.188c-1.0859 0-1.9141 0.39062-2.4844 1.1719-0.57422 0.78125-0.85938 1.9062-0.85938 3.375s0.28516 2.5938 0.85938 3.375c0.57031 0.77344 1.3984 1.1562 2.4844 1.1562 1.0625 0 1.875-0.38281 2.4375-1.1562 0.57031-0.78125 0.85938-1.9062 0.85938-3.375s-0.28906-2.5938-0.85938-3.375c-0.5625-0.78125-1.375-1.1719-2.4375-1.1719zm0-3.5c2.6328 0 4.6914 0.71484 6.1719 2.1406 1.4766 1.418 2.2188 3.3867 2.2188 5.9062 0 2.5117-0.74219 4.4805-2.2188 5.9062-1.4805 1.418-3.5391 2.125-6.1719 2.125-2.6484 0-4.7148-0.70703-6.2031-2.125-1.4922-1.4258-2.2344-3.3945-2.2344-5.9062 0-2.5195 0.74219-4.4883 2.2344-5.9062 1.4883-1.4258 3.5547-2.1406 6.2031-2.1406z"/>
  </symbol>
  <symbol id="c" overflow="visible">
   <path d="m17.75-9.3281v9.3281h-4.9219v-7.1406c0-1.3203-0.03125-2.2344-0.09375-2.7344s-0.16797-0.86719-0.3125-1.1094c-0.1875-0.3125-0.44922-0.55469-0.78125-0.73438-0.32422-0.17578-0.69531-0.26562-1.1094-0.26562-1.0234 0-1.8242 0.39844-2.4062 1.1875-0.58594 0.78125-0.875 1.8711-0.875 3.2656v7.5312h-4.8906v-15.312h4.8906v2.2344c0.73828-0.88281 1.5195-1.5391 2.3438-1.9688 0.83203-0.42578 1.75-0.64062 2.75-0.64062 1.7695 0 3.1133 0.54688 4.0312 1.6406 0.91406 1.0859 1.375 2.6562 1.375 4.7188z"/>
  </symbol>
  <symbol id="i" overflow="visible">
   <path d="m0.42188-15.312h4.8906l3.8281 10.578 3.7969-10.578h4.9062l-6.0312 15.312h-5.375z"/>
  </symbol>
  <symbol id="h" overflow="visible">
   <path d="m2.3594-15.312h4.8906v15.312h-4.8906zm0-5.9688h4.8906v4h-4.8906z"/>
  </symbol>
  <symbol id="t" overflow="visible">
   <path d="m12.422-21.281v3.2188h-2.7031c-0.6875 0-1.1719 0.125-1.4531 0.375-0.27344 0.25-0.40625 0.6875-0.40625 1.3125v1.0625h4.1875v3.5h-4.1875v11.812h-4.8906v-11.812h-2.4375v-3.5h2.4375v-1.0625c0-1.6641 0.46094-2.8984 1.3906-3.7031 0.92578-0.80078 2.3672-1.2031 4.3281-1.2031z"/>
  </symbol>
  <symbol id="s" overflow="visible">
   <path d="m16.547-12.766c0.61328-0.94531 1.3477-1.6719 2.2031-2.1719 0.85156-0.5 1.7891-0.75 2.8125-0.75 1.7578 0 3.0977 0.54688 4.0156 1.6406 0.92578 1.0859 1.3906 2.6562 1.3906 4.7188v9.3281h-4.9219v-7.9844-0.35938c0.007813-0.13281 0.015625-0.32031 0.015625-0.5625 0-1.082-0.16406-1.8633-0.48438-2.3438-0.3125-0.48828-0.82422-0.73438-1.5312-0.73438-0.92969 0-1.6484 0.38672-2.1562 1.1562-0.51172 0.76172-0.77344 1.8672-0.78125 3.3125v7.5156h-4.9219v-7.9844c0-1.6953-0.14844-2.7852-0.4375-3.2656-0.29297-0.48828-0.8125-0.73438-1.5625-0.73438-0.9375 0-1.6641 0.38672-2.1719 1.1562-0.51172 0.76172-0.76562 1.8594-0.76562 3.2969v7.5312h-4.9219v-15.312h4.9219v2.2344c0.60156-0.86328 1.2891-1.5156 2.0625-1.9531 0.78125-0.4375 1.6406-0.65625 2.5781-0.65625 1.0625 0 2 0.25781 2.8125 0.76562 0.8125 0.51172 1.4258 1.2305 1.8438 2.1562z"/>
  </symbol>
  <symbol id="r" overflow="visible">
   <path d="m17.75-9.3281v9.3281h-4.9219v-7.1094c0-1.3438-0.03125-2.2656-0.09375-2.7656s-0.16797-0.86719-0.3125-1.1094c-0.1875-0.3125-0.44922-0.55469-0.78125-0.73438-0.32422-0.17578-0.69531-0.26562-1.1094-0.26562-1.0234 0-1.8242 0.39844-2.4062 1.1875-0.58594 0.78125-0.875 1.8711-0.875 3.2656v7.5312h-4.8906v-21.281h4.8906v8.2031c0.73828-0.88281 1.5195-1.5391 2.3438-1.9688 0.83203-0.42578 1.75-0.64062 2.75-0.64062 1.7695 0 3.1133 0.54688 4.0312 1.6406 0.91406 1.0859 1.375 2.6562 1.375 4.7188z"/>
  </symbol>
  <symbol id="q" overflow="visible">
   <path d="m2.5781-20.406h5.875l7.4219 14v-14h4.9844v20.406h-5.875l-7.4219-14v14h-4.9844z"/>
  </symbol>
  <symbol id="p" overflow="visible">
   <path d="m2.1875-5.9688v-9.3438h4.9219v1.5312c0 0.83594-0.007813 1.875-0.015625 3.125-0.011719 1.25-0.015625 2.0859-0.015625 2.5 0 1.2422 0.03125 2.1328 0.09375 2.6719 0.070313 0.54297 0.17969 0.93359 0.32812 1.1719 0.20703 0.32422 0.47266 0.57422 0.79688 0.75 0.32031 0.16797 0.69141 0.25 1.1094 0.25 1.0195 0 1.8203-0.39062 2.4062-1.1719 0.58203-0.78125 0.875-1.8672 0.875-3.2656v-7.5625h4.8906v15.312h-4.8906v-2.2188c-0.74219 0.89844-1.5234 1.5586-2.3438 1.9844-0.82422 0.41406-1.7344 0.625-2.7344 0.625-1.7617 0-3.1055-0.53906-4.0312-1.625-0.92969-1.082-1.3906-2.6602-1.3906-4.7344z"/>
  </symbol>
  <symbol id="o" overflow="visible">
   <path d="m2.5781-20.406h8.7344c2.5938 0 4.582 0.57812 5.9688 1.7344 1.3945 1.1484 2.0938 2.7891 2.0938 4.9219 0 2.1367-0.69922 3.7812-2.0938 4.9375-1.3867 1.1562-3.375 1.7344-5.9688 1.7344h-3.4844v7.0781h-5.25zm5.25 3.8125v5.7031h2.9219c1.0195 0 1.8047-0.25 2.3594-0.75 0.5625-0.5 0.84375-1.2031 0.84375-2.1094 0-0.91406-0.28125-1.6172-0.84375-2.1094-0.55469-0.48828-1.3398-0.73438-2.3594-0.73438z"/>
  </symbol>
  <symbol id="n" overflow="visible">
   <path d="m2.3594-15.312h4.8906v15.031c0 2.0508-0.49609 3.6172-1.4844 4.7031-0.98047 1.082-2.4062 1.625-4.2812 1.625h-2.4219v-3.2188h0.85938c0.92578 0 1.5625-0.21094 1.9062-0.625 0.35156-0.41797 0.53125-1.2461 0.53125-2.4844zm0-5.9688h4.8906v4h-4.8906z"/>
  </symbol>
  <symbol id="m" overflow="visible">
   <path d="m14.719-14.828v3.9844c-0.65625-0.45703-1.3242-0.79688-2-1.0156-0.66797-0.21875-1.3594-0.32812-2.0781-0.32812-1.3672 0-2.4336 0.40234-3.2031 1.2031-0.76172 0.79297-1.1406 1.9062-1.1406 3.3438 0 1.4297 0.37891 2.543 1.1406 3.3438 0.76953 0.79297 1.8359 1.1875 3.2031 1.1875 0.75781 0 1.4844-0.10938 2.1719-0.32812 0.6875-0.22656 1.3203-0.56641 1.9062-1.0156v4c-0.76172 0.28125-1.5391 0.48828-2.3281 0.625-0.78125 0.14453-1.5742 0.21875-2.375 0.21875-2.7617 0-4.9219-0.70703-6.4844-2.125-1.5547-1.4141-2.3281-3.3828-2.3281-5.9062 0-2.5312 0.77344-4.5039 2.3281-5.9219 1.5625-1.4141 3.7227-2.125 6.4844-2.125 0.80078 0 1.5938 0.074219 2.375 0.21875 0.78125 0.13672 1.5547 0.35156 2.3281 0.64062z"/>
  </symbol>
 </defs>
 <g>
  <path d="m602 250.99c-3.3594-3.1914-5.6016-7.3906-8.5117-10.695-1.9805-2.1016-3.6758-4.457-5.0391-7-2.7422-5.0977-5.207-10.305-8.0625-15.961h-0.003907c1.25-2.4648 2.6328-4.8555 4.1445-7.168 5.207-7.3359 6.0469-19.77 5.6016-28-0.078125-1.6992-0.32031-3.3867-0.73047-5.0391-0.72656-3.1367-4.1992-4.3672-5.9375-1.9023l0.003906-0.003906c-4.2031 4.6719-8.75 9.0117-13.609 12.992-2.2969 2.4062-4.9844 4.4258-7.2227 6.4414h-1.2344c-12.348-2.4336-24.949-3.3359-37.52-2.6875-3.2227-0.003906-6.2695-1.4648-8.2852-3.9766-0.83984-0.83984-1.3984-1.9609-2.2969-2.7422-7.4492-6.4961-11.199-15.566-16.801-23.352v-0.003907c-4.582-10.629-8.3242-21.602-11.199-32.816-0.039063-0.46875-0.17188-0.92578-0.39453-1.3438-0.44141-0.54688-1.0508-0.94141-1.7344-1.1172-0.61719 0-1.625 0.44922-1.793 0.95312v-0.003906c-0.51953 1.5859-0.875 3.2188-1.0625 4.875v6.4414c-2.6875 0-3.3594-1.9609-4.3125-3.5273-2.9102-4.9844-5.6016-10.078-8.625-15.121v-0.003906c-0.85938-1.4453-1.875-2.7969-3.0234-4.0312-0.89453-0.95312-2.5742-0.55859-3.6953 0.78516s-0.44922 1.9609-2.2969 1.9023c-3.8359-3.7812-7.4102-7.8242-10.695-12.094-0.39062-0.55859-1.5117-0.61719-2.6328-1.0625v-0.003907c-0.54297 3.5508 0.003906 7.1836 1.5703 10.418 1.7656 3.1484 2.8164 6.6484 3.0781 10.246-3.5039-0.54688-6.6562-2.4336-8.793-5.2617-4.4805-4.0703-8.9023-8.2148-13.273-12.434-2.5742-2.4648-5.0391-5.1523-7.5586-7.7266-0.65234-0.69141-1.3672-1.332-2.125-1.9062-0.41016-0.18359-0.87891-0.18359-1.2891 0-0.33594 0-0.78516 0.83984-0.67188 1.1211 0.32031 1.1406 0.83203 2.2227 1.5117 3.1914 2.0156 2.4062 4.1445 4.7031 6.1602 7.1133 0.61719 0.72656 1.2305 1.625 0 2.8008-0.84375-0.23047-1.6523-0.57031-2.4102-1.0078-4.4805-3.6953-8.9023-7.4492-13.441-11.199l0.003907-0.003906c-0.96875-0.64062-2.0039-1.1836-3.082-1.6211l-1.6797 5.6016c-2.2383-1.1211-4.1992-2.0703-6.0469-3.0781-1.8477-1.0078-4.5938-2.7422-7-3.8633-1.2305-0.55859-2.3516 0-2.4648 1.8477 1.6797 1.793 3.5273 3.6406 5.3203 5.6016 0.78516 0.83984 1.8477 1.6797 0.67188 3.3594v-0.003906c-6.1133-1.4297-12.328-2.3672-18.59-2.8008 2.8086 4.4766 6.8242 8.0703 11.59 10.359l-4.7031-7.1133c1.5938-0.24609 3.2188-0.24609 4.8164 0 5.9141 1.3477 11.586 3.6172 16.801 6.7227 1.1211 0.72656 2.2969 1.9023 4.0898 0.28125-1.1211-3.3047-5.9922-3.8633-6.8867-8.1758 5.6016 0.78516 7.6172 6.3281 12.711 7.7852 0-1.2891 0.33594-2.1836 0.33594-3.0234 0-0.83984-0.95312-1.793 0.78516-2.2383l-0.003907-0.007812c4.0625 2.0508 7.6953 4.8672 10.695 8.2891 1.6797 1.7344 3.3047 3.5273 4.9297 5.6016 0.89453 0.89453 2.0156 1.6797 3.1367 0.67188 1.1211-1.0078 0.44922-1.7344 0-2.5742-0.44922-0.83984-2.0703-2.8008-0.44922-4.9297 0.78516 0.61719 1.5664 1.0625 2.2383 1.6797l6.0469 6.2734v-0.003906c3.6641 3.8633 8.6836 6.1484 14 6.3867 1.2305-2.1289 0-3.7539-1.0625-5.3203-2.3164-3.0078-3.3086-6.832-2.7461-10.586 6.9453 5.6016 9.1289 13.832 15.176 18.984h5.6016c1.1211 1.6797 2.3516 3.4727 3.4141 5.3203 1.7344 2.9102 3.3047 5.9375 4.9844 8.8477h0.003906c0.23438 0.80859 0.80469 1.4727 1.5664 1.8281 0.76172 0.35156 1.6406 0.35937 2.4062 0.019531 0.39062-1.5117 0.89453-3.1367 1.7344-6.1602 2.6328 6.6094 4.4258 12.152 7.0547 17.191 2.6328 5.0391 6.7773 10.023 9.6875 15.344 2.9102 5.3203 7.3359 8.7344 10.754 13.832h0.003906c-2.9492 1.3789-6.0508 2.3945-9.2422 3.0273-1.3398 0.51562-2.6484 1.1133-3.918 1.7891v1.2891c0 0.39062 0.55859 1.0625 0.83984 1.0625 1.168-0.015625 2.3281-0.14453 3.4727-0.39062 11.551-2.7383 23.504-3.3633 35.277-1.8477 5.5039 1.293 11.152 1.8398 16.801 1.625 0.78516 0 1.7344 0.67187 2.4648 0.95312v5.0391c2.2383-1.625 4.0312-2.7422 5.6016-4.1445 5.6016-4.9844 11.199-10.023 16.801-14.953h-0.003907c1.4844-0.91016 3.0625-1.6602 4.707-2.2383 0.36328 4.0234 0.36328 8.0703 0 12.094 0.125 3.1758-0.65234 6.3203-2.2422 9.0742-2.5742 4.3125-5.0977 8.625-7.9531 13.496 3.6406 6.8867 7.2812 14.223 11.199 21.391h0.003906c1.5781 2.4492 3.4609 4.6875 5.5977 6.6641 1.9805 1.6719 3.1953 4.0781 3.3594 6.6641-0.53906 0.21875-1.0352 0.54297-1.4531 0.95312-1.1758 1.6797-0.78516 2.9102 0.89453 3.3047 1.6797 0.39063 3.1914 0.55859 5.0391 0.89453-0.50391 1.0625-0.61719 1.9609-1.1211 2.2383h0.003907c-2.5625 1.8125-5.375 3.2461-8.3477 4.2578-3.3008 0.74609-6.2461 2.6055-8.3438 5.2617-4.6562 4.6094-8.2695 10.168-10.582 16.297-3.6016 0.99219-6.5898 3.5078-8.1758 6.8906-2.1406 4.3438-7.2734 6.2969-11.762 4.4766-0.93359-0.27734-1.8516-0.61328-2.7422-1.0078-6.3281-2.6328-6.3828-4.0898-5.1523-10.754v0.003906c0.36328-1.1445 0.97656-2.1953 1.793-3.082 1.2891-1.7344 2.6328-3.4141 4.0312-5.1523-0.83984-3.1914-1.6797-6.2148-2.4062-9.2383-0.39062-1.625-0.55859-3.3047-1.0625-4.9297 0-0.39062-1.1211-0.61719-1.7344-0.67187-0.61719-0.054688-1.0078 0.55859-0.95312 0.83984 0 2.4062 0.39062 4.7617 0.61719 7.168 0.22266 2.4062-0.95312 4.0312-3.0781 3.8086h-0.007812c-2.8398 0.070312-5.6328-0.73047-8.0078-2.293 0-3.5859-0.44922-7.4492-0.39062-11.199v-0.003906c0.21484-2.8398-1.5469-5.4531-4.2578-6.3281-3.4727-1.625-6.832-3.5859-10.414-5.0977-3.5859-1.5117-8.1211-3.1367-12.207-4.5352l-0.003906 0.003907c-0.91406-0.10156-1.8242 0.23047-2.4609 0.89453-0.33594 0.55859 0 2.2383 0.33594 2.4648 2.832 1.5664 4.5898 4.5469 4.5898 7.7812-0.027343 0.46875-0.027343 0.9375 0 1.4023 1.5078 6.8828 7.8086 11.641 14.84 11.199 1.625 0 3.2461 0 4.5938 0.39062 1.3438 0.39062 0.95312 1.2305 1.0078 1.625 0.39453 4.8789 2.5664 9.4414 6.1055 12.824 0.32422 0.36719 0.58594 0.78125 0.78125 1.2344 1.2266 1.5547 1.668 3.5898 1.1992 5.5117-0.46875 1.9258-1.8008 3.5273-3.6055 4.3438-3.1953 1.9297-6.9023 2.8398-10.629 2.5977-3.7227-0.23828-7.2852-1.6172-10.203-3.9414-0.95312-0.78516-1.6797-1.7344-2.5742-2.5195l-3.4727-2.9688h-0.003906c-2.25 2.7578-5.9883 3.8086-9.3516 2.6289-9.0898-2.6641-17.395-7.5078-24.191-14.109-3.0117-3.0039-6.2305-5.793-9.6328-8.3438 3.5859-4.4258-2.1289-5.0977-3.6406-7.5586 2.2383-3.8086 4.3125-7.3359 6.3281-10.922h0.003906c0.12891-0.76172 0.12891-1.5352 0-2.2969-1.2891-1.2891-2.6328-2.5195-4.3125-4.0898v0.003906c3.8008-7.9258 8.418-15.434 13.773-22.402 0 0 0.33594-0.33594 0.50391-0.50391 1.3711-1.6836 3.7969-2.0508 5.6016-0.83984 0.59766 0.1875 1.2227 0.28125 1.8477 0.28125v-1.625c-2.9102-6.3828-5.6016-12.711-8.8477-19.039-1.2305-2.6328-2.5195-5.207-3.6406-7.8945v-0.003906c-1.3828-1.9414-1.3828-4.5508 0-6.4961 1.3398-0.11719 2.6875 0.015625 3.9766 0.39453 2.5117 0.85938 4.8438 2.168 6.8867 3.8633 5.207 4.9297 11.594 8.8477 14.391 16.016h0.003906c0.19141 0.43359 0.52734 0.79297 0.94922 1.0078 0.60547 0.16797 1.2461 0.16797 1.8477 0 0 0 0.61719-0.95312 0.44922-1.2305-1.8477-3.6406-3.8086-7.2227-5.6016-10.809-5.6016-3.6406-9.4062-9.0156-15.062-12.375-5.1367-3.1992-9.5156-7.4805-12.824-12.547-3.5859-5.1523-7.3906-10.137-11.199-15.121v0.003906c-0.63281-0.62891-1.5352-0.90234-2.4062-0.73047-0.73047 0.54688-1.0938 1.4531-0.95313 2.3516 0.83984 3.3047 1.9023 6.4961 2.9688 9.6875 0.55859 1.8477 1.5117 3.5859 0 5.6016-1.0312-0.41406-1.9922-0.98047-2.8555-1.6797-1.625-2.1289-2.9102-4.4805-4.4805-6.6094-3.5859-4.8711-7.168-9.7422-11.199-14.391h-0.003906c-1.4961-1.5664-3.2109-2.9023-5.0938-3.9766-0.50391-0.33594-1.7344-0.33594-2.0156 0-0.60547 0.69531-0.90625 1.6016-0.83984 2.5195 0.69141 3.3906 3.1523 6.1484 6.4375 7.2266 2.8203 0.64844 5.2617 2.4062 6.7773 4.8711 2.4062 3.3047 4.5938 6.7773 7.0547 10.078 1.75 2.2656 3.6172 4.4375 5.6016 6.4961 0.44922 0.50391 1.2891 0.55859 1.9609 0.83984l3.3047-4.9297c0.44922-2.5195-1.793-4.3125 0-7.7266 1.2891 1.793 2.0703 3.0234 2.9688 4.1445h-0.003906c2.8008 3.0195 4.1523 7.1094 3.6992 11.199-0.98437 6.5469 0.42578 13.23 3.9727 18.816 1.1758 1.8477 1.9609 3.9219 2.9688 5.6016 1.8008 3.5312 3.082 7.3047 3.8086 11.199-6.7734 7.9805-12.602 16.719-17.359 26.039-1.5703 2.1523-2.5391 4.6758-2.8164 7.3203-0.27344 2.6484 0.15625 5.3203 1.2461 7.7461l-4.0898 5.6016 0.003907-0.003906c0.50781 0.76172 0.9375 1.5664 1.2891 2.4102 0.94531 4.3711 4.4023 7.7617 8.7891 8.625 2.0625 0.74219 3.7773 2.2148 4.8164 4.1406 1.9219 2.4648 4.0586 4.75 6.3867 6.832 6.3008 4.5195 13.223 8.1055 20.551 10.641 1.3594 0.50391 2.832 0.62109 4.2539 0.33594 5.3789-0.72266 10.793 1.0273 14.73 4.7617 1.5547 1.4648 3.5 2.457 5.5977 2.8555 5.1602 1.0898 10.152 2.8594 14.84 5.2656 0.83984 2.8555-0.67188 4.5938-2.5195 6.3281-3.0273 2.3672-5.7383 5.1133-8.0625 8.1758-1.7031 3.4453-3.0195 7.0703-3.9219 10.805 0.054687 0.22266 0.054687 0.45312 0 0.67188-0.72656 0.83984-1.5117 1.625-2.8555 3.0234l-4.8711-5.9375c2.1289-4.9297 7.8398-7.6172 9.2969-14.336v0.003906c-2.625 1.9961-5.0586 4.2266-7.2812 6.6641-1.7656 2.7383-5.0625 4.0625-8.2305 3.3047-3.4727-1.1211-7-1.9609-10.359-3.3047-3.5742-1.3672-7.3789-2.0156-11.203-1.9023-7.8398 9.6875-15.625 19.266-23.465 28.727h0.003906c-2.3789 2.4375-4.043 5.4766-4.8164 8.793-0.40234 2.457-1.9961 4.5547-4.2578 5.5977-1.0625 0.61719-2.1289 1.0625-3.1367 1.5664v0.003906c-0.73438 2.918-0.375 6.0039 1.0078 8.6797 1.4688 3.582 2.4297 7.3516 2.8594 11.199 1.0625 3.9766 2.4648 7.8398 3.1367 11.816 1.5664 9.5742 2.8555 19.152 4.1445 28.785h-0.003906c0.21094 3.1445 1.4531 6.1367 3.5273 8.5117 2.0078 2.3945 3.7734 4.9805 5.2656 7.7266 1.8281 2.4609 1.8281 5.8281 0 8.2891-0.78516-0.83984-1.1758-1.3438-1.6797-1.793-0.50391-0.44922-1.5117-1.457-2.1836-1.3984-0.67188 0.054688-1.7344 1.625-1.3438 2.8008v-0.003907c1.125 4.2383 1.3906 8.6523 0.78125 12.992h2.5234c4.125-3.0898 6.2617-8.1602 5.5977-13.27-0.11328-1.2109-0.11328-2.4297 0-3.6406 0.32422-3.168-0.71094-6.3242-2.8555-8.6797-4.2969-5.3164-6.8398-11.828-7.2812-18.648-0.35547-3.7695-0.95312-7.5078-1.7891-11.199-2.2969-10.586-5.6016-21-7.2227-31.754h-0.003906c-0.70703-2.8281-0.28516-5.8203 1.1758-8.3438 3.0234-4.9297 6.1055-9.8555 9.1836-14.727 0.44922-0.57812 0.95312-1.1016 1.5156-1.5703 1.1133-1.3516 3.0117-1.7695 4.5898-1.0078 1.0391 0.52344 2.0508 1.1016 3.0234 1.7383 0.36719 1.4922 0.64844 3.0078 0.83984 4.5352 1.457 15.68 4.2578 31.137 6.1055 46.762v-0.003906c0.61719 5.7734 0.61719 11.59 0 17.363-0.42188 4.582-0.42188 9.1914 0 13.773 0.16016 2.9414 1.75 5.6172 4.2539 7.168 2.4883 1.5039 4.7188 3.3945 6.6094 5.6016 2.4258 3.5273 6.5391 5.5078 10.809 5.207l6.4414-3.9766c4.8711 1.2891 8.1758-1.7344 11.703-3.8633 0.46484-4.2422-0.73828-8.5039-3.3594-11.871-0.74609-0.93359-1.3477-1.9727-1.793-3.082-0.59766-2.875-2.7617-5.1719-5.6016-5.9336-2.5938-0.88281-4.3477-3.3086-4.3672-6.0508-0.23438-1.8555-0.23438-3.7383 0-5.5977 2.0156-11.648 4.1992-23.297 6.3281-34.945v-0.72656c2.9492-9.168 5.2852-18.523 7-28 0.33594-1.9023 0.50391-4.3125 1.7344-5.6016 2.1094-2.3203 3.6406-5.1016 4.4805-8.1172 0.78906-1.3086 1.6875-2.5469 2.6875-3.6992 2.3516 1.1758 4.4805 2.2383 6.6094 3.1914v0.003906c0.76562 0.41797 1.6992 0.37891 2.4297-0.10156 0.72656-0.48047 1.1289-1.3281 1.043-2.1953v-18.09c0.14062-1.3047 0.38281-2.5977 0.72656-3.8633 2.6992-0.76953 5.3242-1.7812 7.8398-3.0234 4.7812-2.8398 10.141-4.5625 15.68-5.0391 3-0.13672 5.6758-1.9297 6.9453-4.6484 2.125-4.0938 5.082-7.6992 8.6797-10.586 2.2031-1.5508 3.5664-4.0273 3.6953-6.7188 0.09375-1.2031 0.60937-2.3359 1.457-3.1914 2.0898-2.3242 4.3945-4.4453 6.8867-6.3281 3.1914-2.1836 6.7773-3.7539 10.078-5.6016 2.0156-1.1758 4.5352-1.9023 5.3203-4.4805h0.003906c-0.375-2.8477-1.3281-5.5938-2.8008-8.0625zm-75.32 12.879c-2.9375 0.91797-6.1289 0.53516-8.7695-1.0469-2.6445-1.582-4.4844-4.2148-5.0625-7.2383-0.082031-0.71094 0.035156-1.4258 0.33594-2.0742 0-0.44922 0.61719-0.72656 1.5117-1.793 4.1992 1.7344 8.2305 3.3047 12.207 4.9844 1.6445 0.64062 2.6055 2.3516 2.2969 4.0898 0.085937 1.4648-0.91406 2.7773-2.3516 3.0781zm-10.191 173.99s0 0.33594 0.39062 0.50391v0.61719l-0.67188-0.83984s0.16797-0.33594 0.28125-0.28125zm-8.3438-109.48-1.3438 4.5938c-0.69141-0.87891-1.2734-1.8398-1.7383-2.8555-0.55859-1.5703 0.78516-2.2969 3.082-1.7383zm-1.5117 4.7617c-1.293 0.99219-2.168 2.4297-2.4648 4.0312-1.3438 3.9766-3.1367 4.8164-8.2305 4.3125 2.0156-6.6641 4.3672-8.5117 10.863-8.3438zm-17.754-10.137c0.44531-0.19531 0.95703-0.19531 1.4023 0l9.9688 3.5859s0 0.39062 0.44922 0.89453c-0.61719 0.50391-1.3984 1.625-1.9609 1.5664h-0.003906c-4.1562-0.054688-8.1484-1.6484-11.199-4.4805 0.35938-0.59375 0.8125-1.1211 1.3438-1.5664zm6.1602 11.535s-0.78516 0.33594-1.1758 0.44922l-0.67188-0.89453 1.625-0.67188c0.054688 0.39062 0.33594 0.89453 0.22266 1.1172zm-11.93-7.0547 6.1055 3.1914c-1.5664 3.1914-2.6328 3.8086-4.6484 2.9688-2.0156-0.83984-2.293-1.9062-1.4531-6.1602zm-3.4141 32.367c-0.78516-2.6875-1.3984-4.1992-1.6797-5.6016-0.28125-1.3984 0.72656-2.1289 1.9609-2.4062 0.45313-0.15234 0.95313-0.10156 1.3633 0.14844s0.69141 0.66406 0.76562 1.1406c0.10547 2.4688-0.76172 4.8789-2.4102 6.7188zm-0.89453-12.656c-2.4062-1.0625-4.7031-2.3516-7.8945-3.9219 2.6875-3.6953 4.0898-7.3906 8.1211-9.3516l3.9766 3.0781-2.1836 4.7617c3.6953 0 5.6016-4.1992 8.8477-3.0234 0.39062 0 0.72656 0.50391 1.3984 1.0625-1.625 4.0898-3.6406 7.6719-8.793 7.8945v0.003906c-1.1836 0.09375-2.3672-0.078125-3.4727-0.50391zm4.3672 15.848 1.6797-3.4727c0.38281 0.67188 0.40234 1.4883 0.050782 2.1758-0.34766 0.6875-1.0195 1.1562-1.7852 1.2422zm0 0 0.44922 2.4648h-0.50391zm1.3438 25.199c0.17969-0.078125 0.38281-0.078125 0.55859 0 0.41406 0.375 0.64844 0.90234 0.64844 1.457s-0.23438 1.0859-0.64844 1.457h-0.55859c-0.20703-0.097656-0.39844-0.23047-0.55859-0.39062-0.78516-0.50391-0.50391-2.1289 0.44531-2.4102zm27.441-25.984v0.003906c-3.1602 10.895-5.5938 21.988-7.2812 33.207-0.39062 2.6328-1.2305 5.1523-1.6797 7.7852-0.91016 5.4297-0.71875 10.992 0.55859 16.352-0.61719 0.50391-0.89453 0.95312-1.2891 1.1758-0.39062 0.22266-2.9102 0.61719-3.1367 2.4648-0.22266 1.8477 1.2891 2.6328 3.5273 2.9688 1.3984 0 2.8555 0.28125 4.3125 0.39062h0.003906c3.0273-0.13672 5.7461 1.8398 6.5508 4.7578-2.8008 2.8555-2.8008 2.8555-2.4062 8.793-1.5664 1.3984-2.6328 0.39062-3.4141-0.89453h-0.003907c-0.39844-0.78125-0.69922-1.6094-0.89453-2.4648 0-0.89453-0.50391-1.793-0.67188-2.5742-2.3516-0.95312-2.9102 0-2.7422 1.9023s0.78516 3.7539 0.95312 5.6016l-0.003906-0.003907c0.27344 1.4922-0.45313 2.9883-1.793 3.6992-1.4648 0.94922-3.3516 0.94922-4.8164 0-1.1719-0.84766-2.2578-1.8047-3.2461-2.8594-1.2852-1.7578-2.832-3.3086-4.5938-4.5898-5.6016-2.9688-5.2656-8.1758-5.6016-13.215h0.003906c0.058594-2.4727 0.24219-4.9414 0.55859-7.3945 4.8711-6.3828 5.9922-14.672 10.137-21.559-2.0703-1.0625-2.5742 0-2.9688 0.67188-1.9023 3.8633-3.7539 7.7266-6.3281 13.047-0.32422-1.2617-0.49219-2.5586-0.50391-3.8633 3.0781-11.93 6.2734-23.801 9.3516-35.727 0.50391-1.8477 0.39062-1.8477-2.2383-4.3125-1.2305 3.2461-1.625 6.6094-2.7422 9.6328h-0.003907c-0.61328 3.6172-2.0508 7.0469-4.1992 10.023-0.36719-8.7578 0.69141-17.516 3.1367-25.93h-3.6406c0.33594-2.8008 0.72656-5.6016 1.1758-8.625 3.2148-2.0938 6.9219-3.3086 10.754-3.5273 2.9375 0.035156 5.7266-1.2852 7.5586-3.582 1.5977-1.7969 3.3008-3.4961 5.0977-5.0977 0.91406-0.76953 1.9336-1.4102 3.0234-1.9023 1.2148-0.35156 2.5 0.28125 2.9688 1.4531 0.13672 1.418 0.13672 2.8438 0 4.2578-0.41797 6.8047-1.6406 13.531-3.6406 20.047zm22.398-37.855c-0.36719 0.80469-1.0938 1.3867-1.9609 1.5703-0.94141-0.003906-1.8398-0.41406-2.4609-1.1211-0.36328-0.82031-0.36328-1.7539 0-2.5742 0.89062-2.1172 2.4688-3.8711 4.4766-4.9844 1.1016 2.3945 1.0391 5.1602-0.16797 7.5039zm5.2656-46.09c1.0625-0.50391 2.1836 0 1.9023 1.0625s-0.78516 1.1211-1.2891 1.8477c-0.67188-0.55859-1.3984-0.89453-1.5117-1.3984v0.003906c0.019531-0.56641 0.3125-1.0898 0.78516-1.3984zm-6.0469 21.672 6.0469-3.9219c2.1836 0.44922 4.2578 0.78516 5.6016 3.0781-6.2734 3.2539-6.5547 3.2539-11.762 0.96094z"/>
  <path d="m455.95 447.05c-0.55859-0.30859-1.2344-0.30859-1.793 0-0.30859 0.61719-0.30859 1.3438 0 1.9609 0.61719 1.0078 1.793 1.793 2.1289 2.8555 0.20313 1.4883 0.20313 2.9961 0 4.4805-1.5117-0.44922-2.5742-0.50391-3.1914-1.0625-3.9766-3.4141-6.3281-8.3984-10.809-11.199v-0.003906c-0.69531-0.68359-1.1133-1.6016-1.1758-2.5742v-7.168c0.27734-3.3359 0.27734-6.6875 0-10.023-1.3984-7.3359-3.3594-14.559-5.0977-21.895v-0.003907c-1.1953-4.6758-3.3711-9.0469-6.3828-12.82-4.875-6.7227-9.043-13.93-12.434-21.504-1.5781-3.5117-2.0469-7.418-1.3438-11.203 1.7344-9.0156 3.5859-18.031 5.207-27.047 1.9023-10.453 3.7695-20.945 5.6016-31.473 0.69922-2.625 0.5625-5.4062-0.39062-7.9531-3.6953 1.1758-5.6016 5.2656-9.9102 4.7617h-0.003906c-1.5312-4.3516-2.3086-8.9375-2.2969-13.551 0-4.3672-0.28125-8.7344-0.55859-13.047v-0.003906c-0.097656-1.2031-0.46094-2.3672-1.0625-3.4141-0.33594-0.50391-1.457-0.55859-2.0703-0.78516-0.44922 0.67188-0.67188 0.89453-0.67188 1.0625 1.9023 9.5195 0.61719 19.32 3.0234 28.785h-0.003906c0.28125 0.82422 0.16406 1.7344-0.32031 2.457-0.48047 0.72266-1.2734 1.1836-2.1406 1.2422-0.94531 0.19531-1.9141 0.19531-2.8594 0-0.55859 0-1.0625-0.72656-1.5664-1.1211l1.7344-5.207c-1.5703-3.0391-2.7734-6.2539-3.582-9.5781-0.61719-5.2656 0-10.641-0.50391-15.902 0-2.9688 1.9609-4.0312 3.7539-5.8789l-0.003906-0.003906c-1.7969-0.84766-3.1562-2.4102-3.75-4.3086-0.81641-3.0547-2.4453-5.8281-4.7148-8.0234-2.2695-2.1992-5.0898-3.7422-8.1641-4.4648-0.89453-0.29297-1.7578-0.66797-2.5781-1.1211-0.16797-1.2539-0.44922-2.4922-0.83984-3.6953-0.44922-1.3438-1.457-1.793-3.1367-0.67188v5.6016-0.003906c0.4375 9.7109-1.1055 19.41-4.5352 28.504-1.3984 3.3047-2.5195 6.7773-3.8086 10.191-2.0703 5.6016-3.7539 11.199-6.2734 16.801h0.003906c-4.8594 9.7227-10.895 18.805-17.977 27.051-2.5078 3.8867-6.2266 6.8398-10.586 8.3984-0.27734 1.2539-0.46094 2.5273-0.55859 3.8086-0.42188 12.094 0.027344 24.203 1.3438 36.23 0.51172 4.7227 2.3672 9.1992 5.3438 12.902 2.9766 3.7031 6.9531 6.4727 11.457 7.9844 4.4688 1.8711 8.1523 5.2383 10.414 9.5234 1.1211 1.8477 0.50391 2.9688-2.4648 5.2656-0.61719-1.6797-1.1211-3.2461-1.7344-4.7617-0.42188-1.1094-1.0078-2.1484-1.7344-3.082-0.62891-0.63672-1.5273-0.92969-2.4102-0.78516-0.69531 0.59375-1.0352 1.5078-0.89453 2.4102 0.60156 1.8125 1.3516 3.5742 2.2383 5.2617-1.9805 1.8555-4.7148 2.6836-7.3906 2.2422-1.0078-2.4062-1.9609-4.8164-3.0234-7.2227-0.47656-1.0781-1.0781-2.0938-1.793-3.0273h-1.3438c-0.39062 0-1.0078 0.67188-0.95312 0.89453 0 1.3984 0.67187 2.8008 1.0078 4.1445s2.1836 3.2461 0.83984 5.6016c-2.6055 0.48047-5.2969 0.25-7.7812-0.67188-3.8555-0.91016-7.0508-3.5898-8.625-7.2227-2.5312-5.7656-3.9414-11.961-4.1445-18.258 0.058594-4.1328-0.86328-8.2188-2.6875-11.926-3.5859-7.9531-7.2812-15.848-11.199-23.688-2.5508-3.6562-2.7695-8.4492-0.5625-12.32 0.39453-0.84766 0.62109-1.7578 0.67188-2.6875-2.4688-1.9531-3.8477-4.9766-3.6953-8.1211 0.95312-0.61719 2.0703-1.5117 3.3047-2.1836 2.4492-1.3086 3.5703-4.2188 2.6328-6.832-0.16406-0.71094-0.39062-1.4023-0.67188-2.0742-1.707-5.0273-2.7227-10.266-3.0234-15.566-0.83594-5.043-0.33594-10.219 1.4531-15.008 2.9258-8.9844 7.3125-17.426 12.992-24.977 0.47656-0.73047 0.85156-1.5234 1.1211-2.3516-0.51562-0.60938-1.3047-0.91797-2.0977-0.81641-0.79297 0.10156-1.4766 0.59766-1.8242 1.3203-2.2383 3.0781-4.3672 6.2148-6.5508 9.3516-3.5273-2.5742-3.6953-2.5195-4.2578-4.9844h0.003907c-0.71484-1.7773-0.85156-3.7383-0.39453-5.5977 1.8359-4.4883 4.2656-8.707 7.2266-12.547 2.5742-1.3438 4.5938 1.5664 6.5508-0.33594l-3.9219-4.5938c3.3047-3.6406 6.3828-6.9453 9.4648-10.246-0.61719-1.9023-2.1289-1.9023-3.4727-1.1211v0.003906c-1.1172 0.87109-2.1797 1.8047-3.1914 2.7969-1.6797 1.2891-2.2383 3.9219-4.9844 4.0312v0.003906c-2.2227-2.5625-3.4375-5.8477-3.4141-9.2422-0.15234-1.1953 0.125-2.4062 0.78516-3.4141 1.9023-2.4453 4.082-4.6641 6.4922-6.6094 1.1797-0.70703 2.2227-1.6172 3.082-2.6875 0.90625-1.0586 1.9414-2 3.0781-2.8008-2.3516-2.9688-4.9297-0.39062-7.2227-1.2305-1.4922-2.4062-2.4648-5.0938-2.8555-7.8984-0.89453-2.8008 2.2969-4.1992 1.793-6.5508-0.28516-0.47266-0.60156-0.92188-0.95312-1.3438-0.33594-0.33594-0.78516-0.50391-1.1758-0.83984-2.5-2.5391-3.6445-6.1133-3.082-9.6328 2.0859-4.7656 5.3633-8.9141 9.5234-12.039 1.4023-0.77344 2.8867-1.3945 4.4219-1.8477-2.2969-4.1445-3.5859-4.7031-6.0469-2.5742v-0.003906c-1.5977 1.4648-3.1094 3.0195-4.5352 4.6484l-3.8086 4.2578c-9.5195-1.5117-15.344 3.4727-19.879 10.754v-0.003906c-0.76562 1.2305-1.4219 2.5234-1.9609 3.8633-1.3984 3.5859-2.6328 7.2227-4.0898 10.809-0.95312 2.4062-0.89453 5.6016-3.6406 7.2812-0.69141-1.2617-1.2891-2.5703-1.7891-3.9219-0.50391-1.625-0.50391-3.3594-1.0625-4.9297l-0.003907 0.003907c-0.35938-0.86328-1.1055-1.5078-2.0156-1.7383-0.875 0.16016-1.6133 0.75-1.9609 1.5703-0.78516 3.0234-1.2305 6.1602-1.9023 9.2383-0.48438 3.7891-1.6211 7.4648-3.3594 10.863-2.1836 0-2.2969-3.6406-4.9297-2.5195-1.7344 1.7344-1.457 3.9766-1.6797 6.1055-0.78516 6.4961-1.625 12.992-2.5195 19.434 0 0.61719-0.89453 1.0625-1.5664 1.9023l-4.875-2.9141c-0.72656-2.6875 2.4062-5.6016-1.7344-7.2227-2.5195 3.4727-2.5742 3.4727-2.7422 6.3281-0.16797 2.8555 0 7.2812 0 10.922-0.44922 5.6016-1.1211 11.199-1.9023 16.801l-0.003906-0.003907c-0.37891 1.3125-0.98438 2.543-1.793 3.6406-2.4453-1.4609-4.1406-3.9102-4.6484-6.7188-0.12891-0.61719-0.54688-1.1367-1.125-1.3906-0.57422-0.25781-1.2422-0.21875-1.7852 0.10156-1.625 5.6016-3.3047 11.535-4.8711 17.359-1.0117 4.0938-3.457 7.6914-6.8906 10.137-1.2891-1.2305-2.2969-2.0703-3.1367-2.9102h0.003906c-3.1875 3.1367-4.8086 7.5273-4.4258 11.984 0 1.5664-0.83984 3.2461-3.4141 3.3047v-0.003906c-0.28906-1.1133-0.4375-2.2617-0.44922-3.4141 0.39062-3.3047 1.0078-6.6641 1.457-10.023 0.58203-1.7734 0.3125-3.7148-0.73047-5.2656-2.4648 0.78516-2.1289 2.7422-2.4062 4.3125-1.1992 9.5586-7.2266 17.828-15.961 21.895-2.6094 1.2539-5.3047 2.3203-8.0625 3.1953-1.2617 0.21484-2.5508 0.21484-3.8086 0 0.89453-2.3516 1.5117-4.1445 2.2383-5.6016 2.9453-6.625 5.5078-13.41 7.6719-20.328 1.1836-2.6328 1.3047-5.625 0.33594-8.3438-1.0078 0.33594-2.2383 0.39062-2.5742 0.95312-2.3516 3.9219-4.5352 7.9531-6.7773 11.984 1.457-0.61719 2.1289-2.8008 4.6484-1.793-0.42578 2.0742-1.0078 4.1133-1.7344 6.1016-1.793 4.2578-3.8086 8.3984-5.6016 12.543-0.83984 1.7344-1.9023 3.3594-2.6328 5.1523v0.003906c-0.48438 1.0508-0.60547 2.2344-0.33594 3.3594 0.78516 1.5664 2.5195 1.0625 3.9219 0.78516 1.3984-0.28125 1.457-0.28125 2.1289-0.50391 7.9727-2.1797 15.246-6.3828 21.109-12.211l3.0234-3.0234 4.4805 5.6016c1.1562-0.46484 2.2344-1.1094 3.1914-1.9062 1.4805-1.8945 2.7539-3.9414 3.8086-6.1016 0.75391-1.6914 1.9805-3.1328 3.5273-4.1445 5.3281-3.4805 9.0078-8.9805 10.195-15.234 0.51172-3.5664 1.8984-6.9492 4.0312-9.8555 2.0703 2.3516 3.4141 4.8711 5.207 7.1133 0.32812 0.60156 0.90625 1.0234 1.5781 1.1523 0.67188 0.12891 1.3672-0.046874 1.8945-0.48047 0.89453-5.6016 1.9609-11.199 2.8008-16.801-0.19531-5.9453 0.57812-11.887 2.293-17.582l3.8086 2.6875 3.4727 2.8555c3.0234-4.2578 1.2305-8.9023 2.6328-12.879 1.3984-3.9766 0-8.625 2.9102-12.824 0.89844 1.25 1.8906 2.4297 2.9688 3.5273 0.53516 0.42969 1.2422 0.57422 1.9062 0.39062 0.55859 0 1.2891-1.0078 1.2305-1.5664-0.003906-5.5625 0.73047-11.098 2.1836-16.465 0-0.89453 0.28125-2.0156 2.0156-1.9023l1.3984 2.1289 0.003907-0.003906c0.60547 1.0352 1.2773 2.0234 2.0156 2.9688 0.55078 0.86328 1.5938 1.2812 2.5898 1.043s1.7344-1.0859 1.832-2.1055c1.1211-3.9219 2.0703-7.9531 3.1367-11.93 1.6328-5.8125 4.2461-11.305 7.7266-16.238 2.1133-3.0469 5.4023-5.0781 9.0742-5.6016 0.73047-0.14844 1.4883 0.097656 1.9922 0.64844 0.50391 0.55078 0.68359 1.3242 0.47266 2.0391-0.36719 1.1328-0.81641 2.2383-1.3438 3.3047-4.0703 7.9727-7.5156 16.25-10.305 24.754-0.78516 2.5742-2.0156 4.9844-2.5195 7.5586-1.3438 6.6094-2.4648 13.273-3.5859 19.992-0.45703 1.6016-0.58984 3.2773-0.39062 4.9297 1.3281 6.2148 0.41406 12.703-2.5781 18.309-0.50391 1.2891-1.0625 2.5195-1.625 3.9219h0.003906c3.7969 2.4883 7.375 5.2969 10.695 8.3984l-3.1367 1.0625c-2.5195 1.0625-2.8008 2.0703-1.3984 4.3125 1.3984 2.2383 2.9102 3.8086 2.8555 5.6016 0.16016 3.6367 1.6523 7.0859 4.1992 9.6875 1.625 2.1289 3.3047 4.1445 4.9297 6.2734h-0.003906c1.6523 1.375 2.0781 3.7344 1.0078 5.6016-1.1602 1.6836-1.1602 3.9141 0 5.5977 0.83984 1.7344 1.625 3.5273 2.2969 5.3203 1.1211 3.1367 0.39062 4.3672-2.9102 5.0391l-3.0234 0.67188c-1.3438 4.8711 1.2891 8.457 2.3516 12.488-2.4258 4.0156-2.2031 9.0938 0.55859 12.883 2.9102 4.9297 5.0977 10.359 7.5586 15.625 0.33594 0.61719 0.44922 1.3984 0.72656 2.0156 1.0078 2.4648 2.0156 4.8711 3.0781 7.2812l0.003906-0.003906c0.90234 1.7891 1.6133 3.6641 2.1289 5.6016 1.2891 7.3359 2.6328 14.727 3.4141 22.398h0.003907c0.027343 3.2969 1.1367 6.4922 3.1602 9.0938 2.0273 2.6016 4.8516 4.4609 8.0391 5.2969 5.3203 1.7461 10.965 2.2812 16.52 1.5703 3.3164-0.58984 6.707-0.58984 10.023 0l4.2578 0.50391c1.1602-1.625 2.207-3.3281 3.1328-5.0977 1.7422-3.0156 1.7422-6.7266 0-9.7422-2.2383-4.0664-5.8516-7.2031-10.191-8.8477-1.6172-0.51562-3.2031-1.1133-4.7578-1.793-5.25-2.1094-9.1953-6.5742-10.641-12.039-0.92188-3.6836-1.5938-7.4258-2.0156-11.199 0.37109-0.035156 0.74609-0.035156 1.1172 0 0.55859 0.78516 1.3984 1.457 1.5664 2.2969l0.003906-0.003907c1.2188 5.168 5.8945 8.7656 11.199 8.625 1.9609 0 3.8086 0.61719 5.6016 0.83984 5.9922 0.72656 11.984 1.457 17.977 1.9609 1.1758 0 2.4062-0.89453 3.3047-1.2891h-0.003906c-1.0547-2.8398-1.9492-5.7383-2.6875-8.6797-0.35156-3.1523-1.5938-6.1406-3.5742-8.6172-1.9844-2.4805-4.625-4.3438-7.625-5.3828-3.9922-1.3359-7.1523-4.4336-8.5664-8.3984-2.4805-7.9141-2.6172-16.375-0.39453-24.363 0.95312-3.3594 3.2461-6.2734 2.5742-10.191 0-0.95313 0.67188-2.2969 1.3438-3.2461h0.003906c5.6406-8.1758 9.7578-17.301 12.152-26.938 0.72266-2.832 2.332-5.3633 4.5898-7.2227 1.1758 0.95312 2.4062 1.457 3.0234 2.4062 1.2891 2.0156 1.9023 4.4805 3.3594 6.3281 1.457 1.8477 4.0312 3.2461 5.6016 5.1523 2 2.418 3.8711 4.9414 5.6016 7.5625-2.0703 6.1055-2.0703 6.1055 1.0625 8.3438 0.39062 0 1.0078-0.39062 1.1758-0.72656v-0.003906c1.3711-2.9492 4.4297-4.7344 7.6719-4.4805 2.9297 0.019531 5.7891-0.88281 8.1758-2.5742 1.0508-0.50781 2.1367-0.9375 3.25-1.2891 1.1172 2.2656 1.3164 4.8711 0.55859 7.2812-0.67187 4.8164-1.457 9.5742-2.4062 14.336-1.5664 11.988-3.9805 23.855-7.2266 35.504-1.2031 3.4453-1.2031 7.1953 0 10.641 0.71094 2.3086 1.6484 4.5391 2.8008 6.6641 3.9219 6.9453 8.0078 13.777 11.93 20.719 2.0703 3.0547 3.8516 6.3008 5.3203 9.6875 1.793 5.6016 2.9102 11.199 4.1992 16.801 0.39062 1.8398 0.54297 3.7227 0.44531 5.6016 0 3.3594-0.67187 6.6641-1.0625 10.023-0.48828 4.8945 1.0977 9.7656 4.3672 13.438 1.625 2.0703 3.5273 3.9766 5.207 5.9922h0.003907c1.7695 1.6914 2.832 3.9961 2.9648 6.4414h11.594v-7.2812c-0.23438-2.9922-1.9297-5.6758-4.5352-7.168zm-157.59-183.85c-0.17969-0.32031-0.33203-0.65625-0.44531-1.0078 0-0.24609 0.19922-0.44922 0.44531-0.44922 0.25 0 0.44922 0.20312 0.44922 0.44922-0.11719 0.35156-0.26562 0.6875-0.44922 1.0078zm20.777-23.352c0.070313 0.72656-0.10938 1.457-0.50391 2.0742-1.4688 3.4766-3.3477 6.7656-5.6016 9.7969-5.6016-6.6094-4.9297-14.672 1.7344-22.121l0.003906 0.003906c2.7227 2.7695 4.2852 6.4727 4.3672 10.359zm-10.137-8.0078c0 0.33594-1.3438 0-2.2383 0-1.0391-2.9141-1.1758-6.0742-0.39844-9.0703 0.77734-2.9961 2.4375-5.6875 4.7656-7.7305 1.9609 0 2.1836 1.8477 2.3516 3.1367 0.47266 1.8359 0.47266 3.7617 0 5.6016-1.2383 2.8203-2.7383 5.5195-4.4805 8.0625zm9.6875-28c1.5156 2.5117 2.8789 5.1133 4.0898 7.7852-0.98438 2.5781-3.0234 4.6172-5.6016 5.5977-1.2734-2.9297-2.0508-6.0508-2.2969-9.2383-0.16797-2.2969 1.5117-3.6406 3.8086-4.3672zm-4.3672-13.441c2.6055 1.8477 3.4844 5.3125 2.0703 8.1758-3.5273 6.6094-7.3906 13.047-11.199 19.488h-1.6797c2.3047-9.6758 5.9414-18.988 10.809-27.664zm-14.113 55.551c0-4.9297-1.457-10.023 1.9023-14.617 4.3164 5.7148 4.0898 8.125-1.9023 14.621zm4.0312 1.3984v0.003906c0.44141-0.45703 0.90625-0.89062 1.4023-1.2891 1.457 0.67188 1.7344 1.793 0.89453 2.8008-0.57422 0.64844-1.4453 0.94531-2.2969 0.78516-1.0625-0.44922-0.61328-1.5117 0-2.2969zm2.0156 13.777 0.003906 0.003906c0.67578-1.3281 1.4219-2.6172 2.2383-3.8633 1.8477 0.33594 1.8477 1.3438 1.5117 2.1836-1.1758 3.3047-2.5195 6.6094-4.3125 11.199-1.1211-1.5664-2.1836-2.4648-2.0156-2.9688 0.69141-2.2461 1.5508-4.4375 2.5781-6.5508zm3.6953 32.312 0.003907 0.003906c-0.19141-0.38281-0.35938-0.77734-0.50391-1.1758 0 0 0.33594-0.33594 0.50391-0.44922l0.55859 1.1758zm1.8477-6.1602c-3.9219-0.89453-5.6016-4.2578-7.9531-6.2148 0.44922-2.8555 3.5273-1.3438 4.9297-3.9766l0.003906 0.003906c-0.16797-4.3125 0.77734-8.5938 2.7422-12.434 2.9102 1.457 3.9766 4.3125 6.1055 6.2734-2.0156 5.543-3.9219 10.918-5.8242 16.352zm42.113 43.566c1.1758 3.3047 2.2969 6.5508 3.4727 9.8008-2.4648 0.89453-2.9102-0.67188-3.5273-1.8477-0.61719-1.1758-1.8477-2.6328-3.6953-2.2969-0.16797-2.5156-0.16797-5.1484 3.7539-5.6523zm18.031 32.312 0.003906 0.003906c3.7148 2.3203 6.1523 6.2266 6.6055 10.582 0.33594 1.3438-1.6797 2.5195-3.0781 2.0156v0.003907c-1.5938-0.67188-2.8164-2-3.3594-3.6406-0.83984-1.9609-1.5117-4.0312-2.4648-5.9922-0.38281-0.57422-1.0469-0.89453-1.7344-0.83984-1.2305 0-1.5117 1.2305-1.2305 2.1836 0.61719 2.0156 1.5117 4.0312 2.5195 6.4961h-0.003907c-1.0195 0.47266-2.0898 0.82812-3.1914 1.0625-0.94922 0.10938-1.9062 0.10938-2.8555 0-6.2812 0.25-11.832-4.0469-13.16-10.191-1.5117-5.0977-4.0312-9.8555-5.6016-14.84-1.1641-2.4727-1.2188-5.3203-0.14844-7.8359 1.0703-2.5117 3.1602-4.4492 5.75-5.3242 0.79297 3.6797 2.7578 7 5.6016 9.4648 1.1211 1.2305 2.7422 2.2383 3.3594 3.6406 2.5742 5.8398 7.1953 10.539 12.992 13.215zm21.785-113.51c6.2734 2.3516 6.2734 2.3516 5.3203 7v0.003907c-4.9531 0.34375-9.7148-1.9844-12.488-6.1055 5.4336 0.39453 5.4336 0.39453 7.168-0.89453zm-5.6016 10.527s-0.39062 0.61719-0.83984 1.1758c-0.33594-0.61719-0.67188-1.1211-0.89453-1.625-0.22266-0.50391 0.67187-0.61719 0.89453-0.55859l0.003906 0.003907c0.52344 0.11328 0.95312 0.49609 1.1172 1.0078zm2.4062 16.801s-1.0625 0.55859-1.2305 0.39062l0.003906 0.003907c-1.9961-1.7344-3.8672-3.6055-5.6016-5.5977-0.39063-0.44922 0.44922-1.9609 1.0625-4.3672 2.6875 3.5859 4.4258 5.6016 6.0469 8.1211 0.45313 0.66797 0.22656 1.3984 0.003907 1.6758zm3.5273-5.6016c-0.83984-3.4727-1.3984-7-2.0703-10.473 5.6016-1.1211 7.3906 0 7.6172 4.3125v8.6797c-3.1328 0.84375-4.8125 0.003906-5.2617-2.1797zm6.332 20.5c-3.6367-3.082-5.5547-7.7344-5.1523-12.488 3.4141-0.67187 4.9297 0 5.6016 1.625 0.71484 2.5508 1.2383 5.1523 1.5664 7.7852 0 0.83984-1.1758 1.8477-2.0156 3.0781z"/>
  <path d="m178.81 299.77c-4.6484 1.3984-9.3516 2.4062-14.055 3.4727-1.1211 0-2.4648 0-2.8008-2.2969l2.5195-1.8477 2.6328-2.4648c1.3047-1.1758 2.5391-2.4297 3.6953-3.7539 1.3438-1.625 1.0078-2.2383-1.5664-4.2578l-0.003906 0.003906c-2.4492 1.5039-5.0156 2.8164-7.6719 3.918-6.8516 2.4648-14.117 3.5664-21.391 3.25-5.043-0.53516-10.039-1.4336-14.953-2.6875-0.83984 0-1.457-1.3984-2.4648-2.4648l15.344-3.8086h0.003906c1.3984-0.33984 2.7383-0.88672 3.9727-1.625 0.72266-0.55469 1.1016-1.4453 1.0078-2.3516 0-0.72656-1.2305-1.3438-2.0156-1.625-0.71875-0.097657-1.4531 0-2.125 0.28125-4.9258 1.5117-10.266 0.79688-14.617-1.9609-1.4922-0.80078-3.2188-1.0391-4.8711-0.67188-2.4492 0.55469-4.9688-0.58984-6.1602-2.8008-0.89453-1.3984-2.4648-2.3516-3.5273-3.6953-2.0156-2.6875-4.0312-5.6016-5.6016-8.2891v0.003906c-0.75-1.2227-1.0312-2.6758-0.78516-4.0898 1.2305-4.3672-1.625-7.8398-2.0703-11.816-2.6328-2.2852-3.3906-6.0586-1.8477-9.1836 0.36328-1.8438 0.53125-3.7188 0.50391-5.6016l2.6875-1.625v0.003906c0.49609-2.168-0.042969-4.4453-1.457-6.1602-1.9609-2.8008-0.61719-4.8164 1.3438-7l2.4648 3.9219v-0.003906c1.3711-1.8789 2.0625-4.168 1.9609-6.4961 0-2.0156-1.1758-4.2578 0.72656-6.2734 1.6797 0.78516 3.6953 2.6328 4.9844 2.2383 3.3047-1.0078 5.6016 0.95312 8.2305 1.793v0.003906c2.2617 0.74609 4.5859 1.2695 6.9453 1.5664 0.94922-0.0625 1.7969-0.61328 2.2422-1.4531 0.33203-0.875 0.22656-1.8516-0.28125-2.6328-1.0078-1.3438-2.4648-2.2969-3.5859-3.5859-2.2734-1.9453-3.957-4.4844-4.8711-7.3359 6.1055 0.83984 11.648 1.3438 16.801 2.5195 4.2852 0.875 8.2891 2.8008 11.648 5.6016 2.7422 2.4023 4.8555 5.4414 6.1602 8.8477 0.83984 3.3945 2.625 6.4844 5.1523 8.9023 4.7031-1.1758 3.0234-6.6641 7-8.5664 0.83984 2.1836 1.6797 4.1445 2.3516 6.2148 0.96484 2.75 2.6016 5.2109 4.7578 7.168 1.3516 1.5547 3.6992 1.7266 5.2656 0.39453 1.3906-1.0195 2.7188-2.125 3.9766-3.3047 1.2305 2.4648 2.2969 4.3672 3.1367 6.3281 2.7734 6.3125 8.4258 10.898 15.176 12.32 1.1797 0.25 2.4023 0.25 3.582 0 3.0781-0.44922 6.1602-1.1211 9.2383-1.5117h0.003906c3.3828-0.41016 6.6016-1.6836 9.3516-3.6953 8.2461-5.6602 14.094-14.184 16.406-23.914 1.7969-8.2266 6.5859-15.492 13.441-20.383 1.0156-0.63672 1.9062-1.4531 2.6328-2.4102 0-0.39062 0-1.3438-0.39062-1.9609-0.39062-0.61719-0.89453-0.78516-1.1758-0.67188h-0.003907c-1.3594 0.41016-2.6445 1.0352-3.8086 1.8516-2.2383 1.7344-4.1992 3.6953-6.3828 5.6016-0.39062-0.89453-0.78516-1.3984-0.67188-1.6797v-0.003906c0.96484-2.7422 2.7422-5.125 5.0977-6.832 6.6094-4.4805 13.105-9.0703 19.824-13.441 4.0898-2.5742 8.3984-4.7617 12.602-7.168 2.2969-1.2891 2.3516-1.9609 0.39062-5.6016l-0.003906 0.003906c-1.4727 0.66797-2.9883 1.25-4.5352 1.7344-2.3164 0.60937-4.6758 1.0586-7.0547 1.3438-0.72656 0-1.5117-0.55859-2.8008-1.1758 1.7344-1.3438 2.8008-2.2383 3.9766-3.0234 8.1406-4.8086 16.684-8.8906 25.535-12.207 3.7539-1.6328 7.6797-2.8359 11.703-3.5859 4.2891-0.77344 8.6367-1.1875 12.992-1.2305 6.7852-0.53516 13.609 0.32031 20.051 2.5195 1.375 0.43359 2.8359 0.52734 4.2539 0.28125 1.1172-0.058593 2.1211-0.69922 2.6445-1.6836 0.52734-0.98438 0.50391-2.1719-0.066406-3.1328-1.7266-2.5859-3.5938-5.0742-5.6016-7.4492-0.83984-1.0078-1.5664-2.1289-3.0234-4.1992 3.3047 0.50391 5.6016 0.72656 7.4492 1.1758 3.0781 0.61719 6.1055 1.5117 9.1836 2.0156 0.91797 0.035156 1.7969-0.38281 2.3516-1.1211 0.36328-0.875 0.36328-1.8633 0-2.7422-0.60938-1.0195-1.3828-1.9297-2.2969-2.6875-1.1758-1.1211-2.4648-2.1289-4.3672-3.6953 1.9609-0.55859 3.0234-0.95312 4.0898-1.1758 5.6016-1.0625 11.48-1.793 17.078-3.3047 3.5312-0.96875 7.3047-0.41797 10.414 1.5117 1.1992 0.8125 2.4531 1.543 3.7539 2.1836 0.96484 0.14844 1.9453 0.14844 2.9102 0l-2.5742-5.6016c-2.1836-0.72656-4.4258-1.3438-6.5508-2.1836-5.6016-2.3516-11.594-4.8711-17.473-7.168-2.4414-1.0938-5.1758-1.3711-7.7852-0.78125-1.625 0.39062-2.4648 2.2383-1.2891 3.3047 1.1758 1.0625 4.0898 3.4141 6.1055 5.0977l2.6328 2.4062c-1.2891 0.44922-1.9609 0.78516-2.6328 0.95312v-0.003907c-5.4922 0.95703-11.133 0.61328-16.465-1.0078-1.625-0.39062-2.9102 0-2.6328 2.4062 3.5859 2.8555 8.2305 4.6484 11.199 9.9688-2.0156-0.39062-3.1367-0.55859-4.1992-0.83984l-14-3.8633c-0.91016-0.27344-1.8867-0.27344-2.7969 0-0.61719 0.28125-1.3984 1.8477-1.1758 2.1836h-0.003906c0.90234 1.1133 1.9375 2.1133 3.082 2.9688 3.5039 2.6094 6.582 5.7461 9.1289 9.2969 0.49609 0.45703 0.73828 1.125 0.64844 1.7969-0.089843 0.66797-0.5 1.25-1.0977 1.5625-3.082-1.6562-6.6445-2.1914-10.078-1.5117-0.71875 0.16797-1.4688 0.16797-2.1875 0-5.0312-0.73047-10.141-0.73047-15.176 0-1.9023 0-3.8633 0.50391-5.6016 0.55859h0.003906c-4.8438 0.25391-9.5781 1.5312-13.891 3.7539-5.9375 2.8555-11.703 5.8789-17.695 8.457v-0.003906c-5.7227 2.6406-11.102 5.9688-16.016 9.9141-1.0273 0.64453-1.9062 1.5039-2.5742 2.5195-0.38672 0.83594-0.38672 1.7969 0 2.6328 0.58984 0.70703 1.4336 1.1484 2.3516 1.2305 2.0703 0.33594 4.0312-1.8477 6.2148-0.44922 0 0.50391 0 1.1211-0.50391 1.3438v0.003907c-4.8203 4.0195-9.8672 7.7617-15.121 11.199-5.5547 3.4766-10.168 8.2656-13.438 13.941-0.41406 1.2461-0.56641 2.5625-0.44922 3.8672l4.9297 1.0625c-1.9609 3.6406-3.4727 6.9453-5.6016 9.9688-2.4258 3.6055-3.9805 7.7266-4.5352 12.039-0.125 1.6758-0.75 3.2773-1.793 4.5938-3.5547 3.5234-7.332 6.8164-11.312 9.8555-2.2461 1.4844-4.9375 2.1406-7.6133 1.8477-2.9102 0-5.6016 0-8.6797 0.39062h-0.003906c-2.707 0.19531-5.3945-0.60156-7.5586-2.2383-6.3945-4.1953-10.293-11.285-10.414-18.93 0.035156-2.1719-0.09375-4.3438-0.39453-6.4961-0.32422-0.86719-1.0586-1.5156-1.9609-1.7344-0.92188-0.003906-1.7852 0.46094-2.293 1.2305-1.1211 2.9102-1.9023 5.9922-2.9102 8.9609-0.39062 1.2891-0.33594 2.9688-2.9688 3.4727-5.0391-4.1445-3.5273-12.543-9.2969-17.305l-6.1602 7.8398c-0.82812-1.0273-1.5742-2.1133-2.2422-3.2461-3.4102-6.8125-9.4922-11.902-16.801-14.059-2.7812-0.77734-5.6055-1.4141-8.4531-1.9023-3.7539-0.83984-7.5586-1.625-11.199-2.3516h-0.003906c-1.8359-0.41797-3.7148-0.625-5.5977-0.61719-1.1211 0.16016-2.1172 0.79297-2.7461 1.7344-0.39062 0.50391 0 1.9609 0.55859 2.5742 1.793 2.2383 3.9219 4.3125 5.6016 6.4961 0.67188 0.78516 1.625 1.9023 0 3.3594l-6.4961-4.3086c-2.3516-1.6797-4.5938-3.4727-7-5.0977v0.003906c-0.54688-0.24609-1.1719-0.25781-1.7305-0.035156-0.55469 0.22266-1.0039 0.65625-1.2344 1.2109-0.30078 1.168-0.43359 2.375-0.39453 3.582-0.082031 2.3828-0.79688 4.7031-2.0703 6.7188-3.1992 5.1797-4.9727 11.109-5.1523 17.195 0.039063 2.168-0.20703 4.332-0.72656 6.4375-1.0352 4.7734-0.70703 9.7422 0.94922 14.336 1.0625 3.6953 2.0703 7.4492 3.1367 11.199 0.82812 2.0273 0.96484 4.2734 0.39062 6.3867-0.57422 2 0.007813 4.1602 1.5117 5.5977 3.6484 4.5898 8.6445 7.9219 14.281 9.5195 2.0703 0.61719 4.2578 1.0078 6.3281 1.6797v0.003906c0.85156 0.46094 1.6406 1.0234 2.3516 1.6797-4.7031 4.0898-9.0703-0.83984-13.832 0.39062 0.50391 1.2891 0.61719 2.6875 1.3438 3.3047 4.0352 3.4297 8.8086 5.8828 13.945 7.168 9.7266 2.1523 19.789 2.2852 29.566 0.39062 1.8906-0.85156 4.0508-0.85156 5.9375 0-1.625 1.5117-2.9102 2.8555-4.3672 4.0898-1.457 1.2305-2.8008 1.8477-4.0898 2.9102-0.44922 0.54688-0.61719 1.2734-0.44531 1.9609 0 0.55859 0.89453 1.0625 1.5117 1.3984 0.44531 0.19922 0.95312 0.19922 1.3984 0 12.098-0.82812 23.73-4.9961 33.602-12.039-3.25 1.5664-6.7773 3.1914-9.9688 4.2578zm182.89-185.2v-0.67188c0-0.22266 0.67188-0.83984 0.95312-0.83984 4.5195 0.80859 8.8828 2.3203 12.938 4.4805-0.67188 0.89453-1.1758 1.9023-1.3984 1.8477h-0.003906c-4.4688-0.64844-8.7383-2.2969-12.488-4.8164z"/>
  <path d="m175.28 267.62c-3.8633-1.2891-7.5586-3.1914-11.199-4.6484-1.2305-0.44922-2.9102-1.0625-3.3047 1.2891 0.48828 0.50391 1.0312 0.95703 1.6211 1.3438 6.3594 3.5195 13.34 5.7852 20.555 6.6641 13.484 1.375 27.109 0.078124 40.094-3.8086 1.6914-0.62109 3.3203-1.3906 4.875-2.2969-1.9609-0.89062-4.2031-0.89062-6.1602 0-5.8984 2.3516-12.473 2.3516-18.371 0-1.6797-0.78516-3.8086-0.72656-5.6016-1.3438h0.003907c-3.5039-0.67969-6.6797-2.5117-9.0156-5.207 1.0195-0.14844 2.0586-0.14844 3.0781 0 2.2969 0.78516 4.4805 1.8477 6.6641 2.7422 2.1836 0.89453 2.2969 0.83984 4.0898-2.5742-5.7539-6.4648-12.766-11.688-20.609-15.344-2.543-0.89062-4.582-2.8281-5.6016-5.3203 0-0.33594-0.72656-0.50391-1.1211-0.78516-0.39062-0.28125-1.1758 0-1.2305 0.50391-1.1523 5.7305 0.14844 11.68 3.5859 16.406 3.668 4.8125 8.4531 8.6562 13.941 11.203 1.3438 0.61719 3.3594 0.72656 3.4727 3.1914-6.6562 0.79297-13.406 0.10547-19.766-2.0156z"/>
  <path d="m120.4 252c3.625 1.7383 6.043 5.2852 6.3281 9.2969 2.8047 0.75391 5.5547 1.6875 8.2344 2.8008 6.2188 2.6797 12.844 4.3086 19.598 4.8125 0.44922 0 1.0078-0.39062 2.2969-0.89453l-10.191-3.7539v0.003906c-0.83984-8.3203-2.957-16.461-6.2734-24.137-0.44922-1.2305-1.0625-2.4062-2.5742-1.8477-1.5117 0.55859-1.2891 2.0156-1.0078 3.1367 0.72656 2.5195 1.8477 4.9844 2.5195 7.5586 0.67188 2.5742 2.0703 3.9219 0.55859 6.2148-1.2734 0.47266-2.6953 0.33594-3.8516-0.375-1.1602-0.71094-1.9258-1.9141-2.082-3.2656-0.95312-3.4727-1.457-7.1133-2.0703-10.641h-0.003906c-0.26172-1.8867-0.63672-3.7539-1.1172-5.5977-0.15234-0.6875-0.63672-1.25-1.293-1.4961-0.65234-0.25-1.3906-0.14844-1.957 0.26172-2.1055 4.4219-3.2891 9.2227-3.4727 14.113-1.7344 0-3.1367-0.39062-4.4805-0.39062-0.46094 0.125-0.84375 0.44141-1.0586 0.86719-0.21484 0.42969-0.23438 0.92578-0.058594 1.3711 0.51562 0.77734 1.1797 1.4453 1.957 1.9609zm20.777 9.0703c0.37109-0.03125 0.74609-0.03125 1.1211 0l-0.50391 0.95313-1.0078-0.67188s0.22266-0.22266 0.33594-0.22266z"/>
  <path d="m230.78 260.51c9.5078-7.1016 16.918-16.641 21.445-27.609 0.79297-2.2578 1.4648-4.5586 2.0156-6.8867 0.75-5.6797 0.9375-11.418 0.5625-17.137 0-0.39062-0.95312-0.89453-2.2383-2.0703-1.2891 3.6953-2.1836 6.3828-3.1367 9.0703-1.793 5.2656-3.3047 10.641-5.6016 15.68-5.6016 12.488-13.047 23.07-26.543 28-0.39062 0-0.61719 0.61719-0.89453 0.95312 0.72656 1.457 1.8477 1.0625 3.0234 0.72656 1.1758-0.33594 3.7539-1.6797 5.6016 0 1.8438 1.6836 3.918 0.67188 5.7656-0.72656zm7.7812-14.113 10.641-18.645c-1.1367 7.9961-4.7148 15.449-10.246 21.336-0.44922-1.2891-0.61719-1.6797-0.72656-2.1289h-0.003906c0.074219-0.21094 0.1875-0.39844 0.33594-0.5625z"/>
  <path d="m554.18 264.71c3.2891 1.6758 7.1836 1.6758 10.473 0 3.0234-0.95313 3.4727-3.7539 4.0898-6.2734 1.0078-4.1992 1.8477-8.3984 2.7422-12.711l8.1211-3.4688c-1.1758-1.793-2.2383-2.3516-3.4727-1.9023-4.0898 1.3438-8.2305 2.6875-12.152 4.4258-4.8711 2.0703-9.5742 4.4805-14.336 6.7773l-2.9102 1.6797-0.003907-0.007812c-0.58594 2.2539 0.078126 4.6445 1.7383 6.2734 1.6875 1.9609 3.6055 3.707 5.7109 5.207zm10.473-15.902c1.9922 1.9609 2.2305 5.0938 0.55859 7.3359-1.2188 2.0273-2.8828 3.7539-4.8711 5.0391-1.332 0.53125-2.8125 0.53125-4.1445 0-2.1953-0.77344-3.7578-2.7266-4.0312-5.0391 3.8281-2.9727 8.0273-5.4375 12.488-7.3359z"/>
  <path d="m319.98 151.2c-1.4258-0.27734-2.8867-0.27734-4.3125 0-7.7188 2.1211-15.039 5.4883-21.672 9.9688-0.58984 0.51172-1.1172 1.0977-1.5664 1.7344l1.8477 4.7617c-2.5039 1.0703-4.9531 2.2656-7.3359 3.582-2.1055 1.1953-4.0898 2.5859-5.9375 4.1445-1.9023 1.6797-4.0312 3.4141-3.3594 6.9453 2.4297-2.1992 4.9727-4.2773 7.6172-6.2148 2.8867-1.7656 5.8789-3.3516 8.957-4.7617 1.7344-0.83984 3.5859-1.3984 5.6016-2.1836 5.6016-2.4648 5.9375-3.4141 3.4141-9.5742 5.6055-3.4844 11.852-5.8086 18.371-6.832-0.83984-0.89844-1.1758-1.5703-1.625-1.5703z"/>
  <path d="m383.6 144.43c7.957 4.1172 15.078 9.6836 21 16.406 0.58984 0.74609 1.3359 1.3555 2.1836 1.793 0.61719 0.30859 1.3438 0.30859 1.957 0 0.33203-0.57422 0.33203-1.2773 0-1.8477-3.0781-3.0234-6.2734-5.9375-9.4062-8.9609-1.0078-0.95312-1.9023-2.0156-2.9102-3.0234 0.72656-0.55859 1.1211-1.0625 1.457-1.0078 7.6719 0.95312 13.047 6.7773 20.215 8.9609v-0.003906c-9.7852-8.7266-22.07-14.156-35.113-15.512-1.3438 1.625-0.89453 2.5781 0.61719 3.1953z"/>
  <path d="m426.5 153.95c3.4727 4.3125 7 8.5664 10.641 12.77 0.61719 0.78516 1.1758 2.2969 3.1914 0.83984-9.1289-11.199-17.359-23.52-30.465-30.742-0.67188 0.61719-1.2891 1.0078-1.2305 1.2305v-0.003907c1.2539 4.6211 3.8711 8.7578 7.5039 11.871l3.3594-1.8477c2.7656 1.3828 5.1641 3.3984 7 5.8828z"/>
  <path d="m127.06 226.74c2.8555-0.16797 5.7148-0.16797 8.5703 0 3.8086 0.33594 7.5586 1.1758 11.199 1.6797 0.89453 0 2.0156 0 1.793-1.5664-3.6172-1.3203-7.375-2.207-11.199-2.6328-6.168-0.97656-12.477-0.59375-18.48 1.1211-3.0781 0.61719-3.4141 2.0156-1.6797 7.2812 1.6797-3.8477 5.6133-6.207 9.7969-5.8828z"/>
  <path d="m394.3 238.11c-0.45703-0.14453-0.94531-0.14453-1.4023 0-0.46484 0.058594-0.88672 0.30078-1.1758 0.67188-0.16797 0.42969-0.16797 0.91016 0 1.3438 0.28516 0.64062 0.73047 1.1992 1.2891 1.625 5.5078 3.6133 11.945 5.5586 18.535 5.5977-0.44922-0.67187-0.67188-1.1758-1.0078-1.3438-5.7422-1.8906-11.207-4.5469-16.238-7.8945z"/>
  <path d="m536.26 226.69v-15.793-0.67188c-0.44922-0.48828-0.93359-0.9375-1.457-1.3438-2.0078 3.9258-2.4844 8.457-1.3438 12.715-0.09375 2.0859 0.98828 4.0508 2.8008 5.0938z"/>
  <path d="m538.33 238.62c-1.457-0.55859-2.3516 2.3516-1.5117 6.0469 0.52344 1.4648 1.1992 2.875 2.0156 4.1992l1.457-0.39062c0.082032-1.3984 0.082032-2.8008 0-4.1992-0.28125-2.0156 0.67188-4.5391-1.9609-5.6562z"/>
  <use x="70" y="644" xlink:href="#u"/>
  <use x="90.550781" y="644" xlink:href="#b"/>
  <use x="104.359375" y="644" xlink:href="#a"/>
  <use x="123.347656" y="644" xlink:href="#g"/>
  <use x="142.242188" y="644" xlink:href="#e"/>
  <use x="155.628906" y="644" xlink:href="#a"/>
  <use x="174.617188" y="644" xlink:href="#l"/>
  <use x="204.410156" y="644" xlink:href="#k"/>
  <use x="224.453125" y="644" xlink:href="#j"/>
  <use x="252.453125" y="644" xlink:href="#g"/>
  <use x="271.34375" y="644" xlink:href="#b"/>
  <use x="285.15625" y="644" xlink:href="#f"/>
  <use x="294.75" y="644" xlink:href="#d"/>
  <use x="313.988281" y="644" xlink:href="#a"/>
  <use x="332.976562" y="644" xlink:href="#c"/>
  <use x="352.914062" y="644" xlink:href="#f"/>
  <use x="372.257812" y="644" xlink:href="#a"/>
  <use x="391.25" y="644" xlink:href="#i"/>
  <use x="409.5" y="644" xlink:href="#h"/>
  <use x="419.097656" y="644" xlink:href="#c"/>
  <use x="439.03125" y="644" xlink:href="#c"/>
  <use x="458.964844" y="644" xlink:href="#h"/>
  <use x="468.5625" y="644" xlink:href="#a"/>
  <use x="487.554687" y="644" xlink:href="#i"/>
  <use x="70" y="672" xlink:href="#t"/>
  <use x="82.183594" y="672" xlink:href="#b"/>
  <use x="95.992188" y="672" xlink:href="#d"/>
  <use x="115.226562" y="672" xlink:href="#s"/>
  <use x="154.152344" y="672" xlink:href="#e"/>
  <use x="167.535156" y="672" xlink:href="#r"/>
  <use x="187.46875" y="672" xlink:href="#a"/>
  <use x="216.207031" y="672" xlink:href="#q"/>
  <use x="239.640625" y="672" xlink:href="#d"/>
  <use x="258.878906" y="672" xlink:href="#p"/>
  <use x="278.8125" y="672" xlink:href="#c"/>
  <use x="308.492188" y="672" xlink:href="#o"/>
  <use x="329.015625" y="672" xlink:href="#b"/>
  <use x="342.820312" y="672" xlink:href="#d"/>
  <use x="362.058594" y="672" xlink:href="#n"/>
  <use x="371.65625" y="672" xlink:href="#a"/>
  <use x="390.648438" y="672" xlink:href="#m"/>
  <use x="407.242188" y="672" xlink:href="#e"/>
 </g>
</svg>
